<svg width="24" height="24" viewBox="0 0 24 24" fill="none" xmlns="http://www.w3.org/2000/svg">
<circle cx="12" cy="12" r="12" fill="#0A3E6D"/>
<path fill-rule="evenodd" clip-rule="evenodd" d="M11.7072 11.6737C13.534 11.6737 15.015 10.1928 15.015 8.36595C15.015 6.53915 13.534 5.05823 11.7072 5.05823C9.88044 5.05823 8.39952 6.53915 8.39952 8.36595C8.39952 10.1928 9.88044 11.6737 11.7072 11.6737ZM18.1984 17.7941C18.6937 19.0075 17.4778 20.0018 16.1751 19.8578L12.2838 19.4277C12.0675 19.4038 11.8493 19.4035 11.6329 19.4268L7.78593 19.8411C6.46147 19.9838 5.169 19.0388 5.57344 17.7695C5.81293 17.018 6.24339 16.3243 6.83608 15.7347C7.42877 15.1452 8.17005 14.6734 9.01045 14.3509C9.85085 14.0283 10.771 13.8624 11.7095 13.8642C12.6481 13.8661 13.5833 14.0356 14.4529 14.3615C15.3225 14.6873 16.1064 15.1621 16.7523 15.754C17.3982 16.346 17.8912 17.0415 18.1984 17.7941Z" fill="#CCEAF2"/>
</svg>
